<?xml version="1.0" encoding="iso-8859-1"?>
<!-- Generator: Adobe Illustrator 19.0.0, SVG Export Plug-In . SVG Version: 6.00 Build 0)  -->
<svg version="1.1" id="Capa_1" xmlns="http://www.w3.org/2000/svg" xmlns:xlink="http://www.w3.org/1999/xlink" x="0px" y="0px"
	 viewBox="0 0 512 512" style="enable-background:new 0 0 512 512;" xml:space="preserve">
<path style="fill:#A5E9FF;" d="M482,482H30v-19.534L245.72,30h20.561L482,462.466V482z"/>
<g>
	<polygon style="fill:#87DAFF;" points="266.28,30 256,30 256,482 482,482 482,462.466 	"/>
	<polygon style="fill:#87DAFF;" points="68.746,452 443.254,452 256,76.6 	"/>
</g>
<polygon style="fill:#00C3FF;" points="256,76.6 256,452 443.254,452 "/>
<polygon style="fill:#FFEE4C;" points="189.25,211 0,211 0,362 113.625,362 256,346.166 256,244.9 "/>
<polygon style="fill:#FFBD00;" points="256,244.9 189.25,211 0,211 0,331 256,331 "/>
<polygon style="fill:#FF650C;" points="256,244.9 189.25,211 0,211 0,301 256,301 "/>
<polygon style="fill:#00C3FF;" points="256,244.9 189.25,211 0,211 0,271 256,271 "/>
<polygon style="fill:#76CC5B;" points="189.25,211 0,211 0,241 248.321,241 "/>
<polygon style="fill:#FFEE4C;" points="368.432,302 256,244.9 256,346.166 383.375,332 512,332 512,302 "/>
<polygon style="fill:#FFFFFF;" points="383.396,332 368.432,302 368.432,302 189.25,211 188.96,211 113.64,361.998 383.375,332 "/>
<polygon style="fill:#F2F2F4;" points="368.432,302 256,244.9 256,346.166 383.375,332 383.396,332 "/>
<g>
</g>
<g>
</g>
<g>
</g>
<g>
</g>
<g>
</g>
<g>
</g>
<g>
</g>
<g>
</g>
<g>
</g>
<g>
</g>
<g>
</g>
<g>
</g>
<g>
</g>
<g>
</g>
<g>
</g>
</svg>
